<svg width="78" height="78" viewBox="0 0 78 78" fill="none" xmlns="http://www.w3.org/2000/svg">
<g clip-path="url(#clip0_2_947)" filter="url(#filter0_d_2_947)">
<path d="M61.6339 52.4863C62.8648 51.1059 62.8091 49.0059 61.5067 47.6925L58.0476 44.2334C62.6796 38.1978 62.1279 29.6654 56.7572 24.2765L41.817 9.33392L42.118 9.03292C44.1843 6.96662 44.1843 3.61627 42.118 1.54997C40.0517 -0.516331 36.7013 -0.516331 34.635 1.54997L28.5007 7.68426L21.8834 1.06697C20.4614 -0.35504 18.1558 -0.35504 16.7338 1.06697C15.3118 2.48898 15.3118 4.79459 16.7338 6.21661L23.3511 12.8339L16.8341 19.3509L10.2168 12.7336C8.79484 11.3116 6.48923 11.3116 5.06722 12.7336C3.6452 14.1556 3.6452 16.4612 5.06722 17.8832L11.6845 24.5005L5.55021 30.6348C3.48391 32.7011 3.48391 36.0514 5.55021 38.1177C7.61651 40.184 10.9669 40.184 13.0332 38.1177L13.3342 37.8167L28.2767 52.7593C33.6612 58.14 42.2013 58.6922 48.2336 54.0496L51.6928 57.5088C53.0013 58.8222 55.1102 58.8782 56.4866 57.636L68.8508 70.0002H74.0005V64.8506L61.6339 52.4863ZM18.3835 4.56695C17.8725 4.05595 17.8725 3.22763 18.3835 2.71663C18.8945 2.20563 19.7228 2.20563 20.2338 2.71663L26.8511 9.33392L25.0008 11.1842L18.3835 4.56695ZM6.71687 16.2335C6.20588 15.7225 6.20588 14.8942 6.71687 14.3832C7.22787 13.8722 8.0562 13.8722 8.56719 14.3832L15.1845 21.0005L13.3342 22.8508L6.71687 16.2335ZM11.6845 36.1671L11.3835 36.4681C10.21 37.6051 8.33692 37.5757 7.19987 36.4022C6.08804 35.2548 6.08804 33.4319 7.19987 32.2844L13.3342 26.1502L18.4838 21.0005L25.0008 14.4836L30.1504 9.33392L36.2847 3.19963C37.4582 2.06257 39.3313 2.09203 40.4683 3.26554C41.5802 4.41295 41.5802 6.23586 40.4683 7.38327L40.1673 7.68426L11.6845 36.1671ZM48.0761 51.1097C43.0609 56.1135 34.9416 56.1135 29.9264 51.1097L14.9838 36.1671L40.1673 10.9836L55.1099 25.9262C60.1137 30.9413 60.1137 39.0606 55.1099 44.0759L48.0761 51.1097ZM54.9921 55.8591C54.5365 56.3146 53.798 56.3146 53.3424 55.8591L49.9836 52.5003L56.5006 45.9834L59.8594 49.3422C60.3148 49.7978 60.3148 50.5363 59.8594 50.9918L54.9921 55.8591ZM71.6671 67.6669H69.8168L58.1502 56.0003L60.0005 54.15L71.6671 65.8166V67.6669Z" fill="white"/>
<path d="M47.1463 42.9511L43.6463 24.2845C43.5266 23.6514 42.9163 23.2352 42.2832 23.355C42.0532 23.3984 41.8415 23.5101 41.6758 23.6755L38.2598 27.0915L36.5834 22.9009C36.4375 22.5367 36.1184 22.2701 35.734 22.1915C35.3499 22.11 34.9508 22.2296 34.6747 22.5089L28.8414 28.3422C28.5114 28.6719 28.4096 29.1665 28.5824 29.5998L33.249 41.2664C33.4881 41.8648 34.1668 42.1561 34.7653 41.9171C34.9123 41.8584 35.0458 41.7704 35.1577 41.6584L39.0007 37.8166L45.1758 43.9917C45.6321 44.4466 46.3708 44.4456 46.8257 43.9893C47.097 43.7171 47.2169 43.3288 47.1463 42.9511ZM39.8255 35.3421C39.3699 34.8867 38.6314 34.8867 38.1758 35.3421L34.7599 38.7581L31.0371 29.4493L35.0749 25.4103L36.7513 29.601C36.9904 30.1993 37.6691 30.4907 38.2676 30.2517C38.4146 30.1929 38.5482 30.105 38.66 29.993L41.7622 26.8908L44.1608 39.6763L39.8255 35.3421Z" fill="white"/>
</g>
<defs>
<filter id="filter0_d_2_947" x="0.000244141" y="0" width="78" height="78" filterUnits="userSpaceOnUse" color-interpolation-filters="sRGB">
<feFlood flood-opacity="0" result="BackgroundImageFix"/>
<feColorMatrix in="SourceAlpha" type="matrix" values="0 0 0 0 0 0 0 0 0 0 0 0 0 0 0 0 0 0 127 0" result="hardAlpha"/>
<feOffset dy="4"/>
<feGaussianBlur stdDeviation="2"/>
<feComposite in2="hardAlpha" operator="out"/>
<feColorMatrix type="matrix" values="0 0 0 0 0 0 0 0 0 0 0 0 0 0 0 0 0 0 0.25 0"/>
<feBlend mode="normal" in2="BackgroundImageFix" result="effect1_dropShadow_2_947"/>
<feBlend mode="normal" in="SourceGraphic" in2="effect1_dropShadow_2_947" result="shape"/>
</filter>
<clipPath id="clip0_2_947">
<rect width="70" height="70" fill="white" transform="translate(4.00024)"/>
</clipPath>
</defs>
</svg>
